<svg xmlns="http://www.w3.org/2000/svg" xmlns:xlink="http://www.w3.org/1999/xlink" version="1.0" x="0" y="0" width="2400" height="1806.9646062853549" viewBox="137.88019451141358 100.81693920135498 64.23959953308105 48.366117782592774" preserveAspectRatio="xMidYMid meet" color-interpolation-filters="sRGB"><g><defs><linearGradient id="92" x1="0%" y1="0%" x2="100%" y2="0%"><stop offset="0%" stop-color="#fa71cd"></stop> <stop offset="100%" stop-color="#9b59b6"></stop></linearGradient><linearGradient id="93" x1="0%" y1="0%" x2="100%" y2="0%"><stop offset="0%" stop-color="#f9d423"></stop> <stop offset="100%" stop-color="#f83600"></stop></linearGradient><linearGradient id="94" x1="0%" y1="0%" x2="100%" y2="0%"><stop offset="0%" stop-color="#0064d2"></stop> <stop offset="100%" stop-color="#1cb0f6"></stop></linearGradient><linearGradient id="95" x1="0%" y1="0%" x2="100%" y2="0%"><stop offset="0%" stop-color="#f00978"></stop> <stop offset="100%" stop-color="#3f51b1"></stop></linearGradient><linearGradient id="96" x1="0%" y1="0%" x2="100%" y2="0%"><stop offset="0%" stop-color="#7873f5"></stop> <stop offset="100%" stop-color="#ec77ab"></stop></linearGradient><linearGradient id="97" x1="0%" y1="0%" x2="100%" y2="0%"><stop offset="0%" stop-color="#f9d423"></stop> <stop offset="100%" stop-color="#e14fad"></stop></linearGradient><linearGradient id="98" x1="0%" y1="0%" x2="100%" y2="0%"><stop offset="0%" stop-color="#009efd"></stop> <stop offset="100%" stop-color="#2af598"></stop></linearGradient><linearGradient id="99" x1="0%" y1="0%" x2="100%" y2="0%"><stop offset="0%" stop-color="#ffcc00"></stop> <stop offset="100%" stop-color="#00b140"></stop></linearGradient><linearGradient id="100" x1="0%" y1="0%" x2="100%" y2="0%"><stop offset="0%" stop-color="#d51007"></stop> <stop offset="100%" stop-color="#ff8177"></stop></linearGradient><linearGradient id="102" x1="0%" y1="0%" x2="100%" y2="0%"><stop offset="0%" stop-color="#a2b6df"></stop> <stop offset="100%" stop-color="#0c3483"></stop></linearGradient><linearGradient id="103" x1="0%" y1="0%" x2="100%" y2="0%"><stop offset="0%" stop-color="#7ac5d8"></stop> <stop offset="100%" stop-color="#eea2a2"></stop></linearGradient><linearGradient id="104" x1="0%" y1="0%" x2="100%" y2="0%"><stop offset="0%" stop-color="#00ecbc"></stop> <stop offset="100%" stop-color="#007adf"></stop></linearGradient><linearGradient id="105" x1="0%" y1="0%" x2="100%" y2="0%"><stop offset="0%" stop-color="#b88746"></stop> <stop offset="100%" stop-color="#fdf5a6"></stop></linearGradient></defs><g class="imagesvg isNoFont" transform="translate(138.51000022888184,101.44674110412598)"><g><rect fill="#333" fill-opacity="0" stroke-width="2" x="0" y="0" width="62.98" height="47.10651697495082" class="image-rect"></rect> <svg filter="url(#colors2594628986)" x="0" y="0" width="62.98" height="47.10651697495082" filtersec="colorsf9557628453" class="image-svg-svg primary" style="overflow: visible;"><svg xmlns="http://www.w3.org/2000/svg" xmlns:xlink="http://www.w3.org/1999/xlink" version="1.1" x="0px" y="0px" viewBox="16.0683536529541 76.5 479.8399658203125 358.9000244140625" xml:space="preserve"><g><path d="M495.5,427.3l-24.3-57.5c0,0,0,0,0,0l-8.9-21.1c-5.1-12-16.8-19.8-29.8-19.8h-8.9l-5.8-11.9c5.9-10.4,15.7-15.1,22.9-17.2   c10.6-3.2,17.8-12.8,17.8-23.8c0-3.2-2.6-5.9-5.9-5.9h-38.8c-3.2,0-5.9,2.6-5.9,5.9c0,3.2,2.6,5.9,5.9,5.9h31.6   c-1.6,3.2-4.4,5.7-8.1,6.7c-7.7,2.3-17.7,7-25.4,16.4l-15.2-31.5L379,236.8c-4.7-9.7-14.6-15.9-25.4-15.9H304v-8.6   c0-4.1,3.4-7.5,7.5-7.5h27.2c3,0,5.7,1.8,6.9,4.6c1.3,3,4.7,4.4,7.7,3.1c3-1.3,4.4-4.7,3.1-7.7c-3-7.1-10-11.7-17.7-11.7H331v-50.1   c0-3.2-2.6-5.9-5.9-5.9c-3.2,0-5.9,2.6-5.9,5.9v50.1h-7.7c-10.6,0-19.2,8.6-19.2,19.2v8.6h-23.5c-12.1,0-23.6,5.8-30.7,15.6   L213.3,270h-24.8c-10.3,0-20.3,4.2-27.4,11.6l-45.7,47.2H21.9c-2.8,0-5.2,2-5.7,4.7c-0.6,2.7,0.9,5.5,3.5,6.6   c42.8,18,75.6,55.6,91.3,76.5c8.9,11.8,23,18.8,37.8,18.8h341.2c2,0,3.8-1,4.9-2.6C496,431.2,496.2,429.1,495.5,427.3z    M247.5,243.4c5-6.7,12.9-10.8,21.3-10.8h84.8c6.3,0,12.1,3.6,14.8,9.3L382,270h-57v-6.8c0-11.8-9.6-21.4-21.4-21.4h-42.8   c-3.2,0-5.9,2.6-5.9,5.9c0,3.2,2.6,5.9,5.9,5.9h42.8c5.3,0,9.6,4.3,9.6,9.6v6.8h-85.4L247.5,243.4z M169.5,289.8   c5-5.1,11.9-8.1,19-8.1h199.2l22.8,47.2H195.9l5.6-6.3c6.5-7.3,15.8-11.4,25.5-11.4h8.9v7c0,3.2,2.6,5.9,5.9,5.9   c3.2,0,5.9-2.6,5.9-5.9v-7h33.6v7c0,3.2,2.6,5.9,5.9,5.9c3.2,0,5.9-2.6,5.9-5.9v-7h33.9v7c0,3.2,2.6,5.9,5.9,5.9   c3.2,0,5.9-2.6,5.9-5.9v-7h33.9v7c0,3.2,2.6,5.9,5.9,5.9c3.2,0,5.9-2.6,5.9-5.9V311c2.5-0.7,4.3-2.9,4.3-5.6c0-3.2-2.6-5.9-5.9-5.9   H227c-13.1,0-25.5,5.6-34.3,15.3l-12.6,14.1h-48.4L169.5,289.8z M148.8,423.7c-11.1,0-21.8-5.3-28.5-14.2   c-6.5-8.6-15.7-19.9-27.3-31.6h160.8c3.2,0,5.9-2.6,5.9-5.9s-2.6-5.9-5.9-5.9H80.7c-10.2-9.1-21.7-18-34.4-25.6h386.1   c8.3,0,15.8,5,19,12.6l5.5,13H321c-3.2,0-5.9,2.6-5.9,5.9s2.6,5.9,5.9,5.9h140.9l19.3,45.8H148.8z"></path><path d="M293,366.3h-8c-3.2,0-5.9,2.6-5.9,5.9s2.6,5.9,5.9,5.9h8c3.2,0,5.9-2.6,5.9-5.9S296.2,366.3,293,366.3z"></path><path d="M352,184.7c3.2,0,5.9-2.6,5.9-5.9V82.4c0-3.2-2.6-5.9-5.9-5.9c-3.2,0-5.9,2.6-5.9,5.9v96.4   C346.2,182.1,348.8,184.7,352,184.7z"></path></g></svg></svg> <defs><filter id="colors2594628986"><feColorMatrix type="matrix" values="0 0 0 0 0.19921875  0 0 0 0 0.19921875  0 0 0 0 0.19921875  0 0 0 1 0" class="icon-feColorMatrix "></feColorMatrix></filter> <filter id="colorsf9557628453"><feColorMatrix type="matrix" values="0 0 0 0 0.99609375  0 0 0 0 0.99609375  0 0 0 0 0.99609375  0 0 0 1 0" class="icon-fecolormatrix"></feColorMatrix></filter> <filter id="colorsb9049062522"><feColorMatrix type="matrix" values="0 0 0 0 0  0 0 0 0 0  0 0 0 0 0  0 0 0 1 0" class="icon-fecolormatrix"></feColorMatrix></filter></defs></g></g><defs v-gra="od"></defs></g></svg>