<svg xmlns="http://www.w3.org/2000/svg" xmlns:xlink="http://www.w3.org/1999/xlink" version="1.0" x="0" y="0" width="2400" height="563.3809287968564" viewBox="60.51830093383789 99.30004684448242 218.96339813232422 51.39991775512695" preserveAspectRatio="xMidYMid meet" color-interpolation-filters="sRGB"><g><defs><linearGradient id="92" x1="0%" y1="0%" x2="100%" y2="0%"><stop offset="0%" stop-color="#fa71cd"></stop> <stop offset="100%" stop-color="#9b59b6"></stop></linearGradient><linearGradient id="93" x1="0%" y1="0%" x2="100%" y2="0%"><stop offset="0%" stop-color="#f9d423"></stop> <stop offset="100%" stop-color="#f83600"></stop></linearGradient><linearGradient id="94" x1="0%" y1="0%" x2="100%" y2="0%"><stop offset="0%" stop-color="#0064d2"></stop> <stop offset="100%" stop-color="#1cb0f6"></stop></linearGradient><linearGradient id="95" x1="0%" y1="0%" x2="100%" y2="0%"><stop offset="0%" stop-color="#f00978"></stop> <stop offset="100%" stop-color="#3f51b1"></stop></linearGradient><linearGradient id="96" x1="0%" y1="0%" x2="100%" y2="0%"><stop offset="0%" stop-color="#7873f5"></stop> <stop offset="100%" stop-color="#ec77ab"></stop></linearGradient><linearGradient id="97" x1="0%" y1="0%" x2="100%" y2="0%"><stop offset="0%" stop-color="#f9d423"></stop> <stop offset="100%" stop-color="#e14fad"></stop></linearGradient><linearGradient id="98" x1="0%" y1="0%" x2="100%" y2="0%"><stop offset="0%" stop-color="#009efd"></stop> <stop offset="100%" stop-color="#2af598"></stop></linearGradient><linearGradient id="99" x1="0%" y1="0%" x2="100%" y2="0%"><stop offset="0%" stop-color="#ffcc00"></stop> <stop offset="100%" stop-color="#00b140"></stop></linearGradient><linearGradient id="100" x1="0%" y1="0%" x2="100%" y2="0%"><stop offset="0%" stop-color="#d51007"></stop> <stop offset="100%" stop-color="#ff8177"></stop></linearGradient><linearGradient id="102" x1="0%" y1="0%" x2="100%" y2="0%"><stop offset="0%" stop-color="#a2b6df"></stop> <stop offset="100%" stop-color="#0c3483"></stop></linearGradient><linearGradient id="103" x1="0%" y1="0%" x2="100%" y2="0%"><stop offset="0%" stop-color="#7ac5d8"></stop> <stop offset="100%" stop-color="#eea2a2"></stop></linearGradient><linearGradient id="104" x1="0%" y1="0%" x2="100%" y2="0%"><stop offset="0%" stop-color="#00ecbc"></stop> <stop offset="100%" stop-color="#007adf"></stop></linearGradient><linearGradient id="105" x1="0%" y1="0%" x2="100%" y2="0%"><stop offset="0%" stop-color="#b88746"></stop> <stop offset="100%" stop-color="#fdf5a6"></stop></linearGradient></defs><g fill="#ffffff" class="icon-text-wrapper icon-svg-group iconsvg" transform="translate(62.665000915527344,101.44674301147461)"><g class="iconsvg-imagesvg" transform="translate(0,0)"><g><rect fill="#ffffff" fill-opacity="0" stroke-width="2" x="0" y="0" width="62.98" height="47.10651697495082" class="image-rect"></rect> <svg filter="url(#colors1570311164)" x="0" y="0" width="62.98" height="47.10651697495082" filtersec="colorsf4343534837" class="image-svg-svg primary" style="overflow: visible;"><svg xmlns="http://www.w3.org/2000/svg" xmlns:xlink="http://www.w3.org/1999/xlink" version="1.1" x="0px" y="0px" viewBox="16.0683536529541 76.5 479.8399658203125 358.9000244140625" xml:space="preserve"><g><path d="M495.5,427.3l-24.3-57.5c0,0,0,0,0,0l-8.9-21.1c-5.1-12-16.8-19.8-29.8-19.8h-8.9l-5.8-11.9c5.9-10.4,15.7-15.1,22.9-17.2   c10.6-3.2,17.8-12.8,17.8-23.8c0-3.2-2.6-5.9-5.9-5.9h-38.8c-3.2,0-5.9,2.6-5.9,5.9c0,3.2,2.6,5.9,5.9,5.9h31.6   c-1.6,3.2-4.4,5.7-8.1,6.7c-7.7,2.3-17.7,7-25.4,16.4l-15.2-31.5L379,236.8c-4.7-9.7-14.6-15.9-25.4-15.9H304v-8.6   c0-4.1,3.4-7.5,7.5-7.5h27.2c3,0,5.7,1.8,6.9,4.6c1.3,3,4.7,4.4,7.7,3.1c3-1.3,4.4-4.7,3.1-7.7c-3-7.1-10-11.7-17.7-11.7H331v-50.1   c0-3.2-2.6-5.9-5.9-5.9c-3.2,0-5.9,2.6-5.9,5.9v50.1h-7.7c-10.6,0-19.2,8.6-19.2,19.2v8.6h-23.5c-12.1,0-23.6,5.8-30.7,15.6   L213.3,270h-24.8c-10.3,0-20.3,4.2-27.4,11.6l-45.7,47.2H21.9c-2.8,0-5.2,2-5.7,4.7c-0.6,2.7,0.9,5.5,3.5,6.6   c42.8,18,75.6,55.6,91.3,76.5c8.9,11.8,23,18.8,37.8,18.8h341.2c2,0,3.8-1,4.9-2.6C496,431.2,496.2,429.1,495.5,427.3z    M247.5,243.4c5-6.7,12.9-10.8,21.3-10.8h84.8c6.3,0,12.1,3.6,14.8,9.3L382,270h-57v-6.8c0-11.8-9.6-21.4-21.4-21.4h-42.8   c-3.2,0-5.9,2.6-5.9,5.9c0,3.2,2.6,5.9,5.9,5.9h42.8c5.3,0,9.6,4.3,9.6,9.6v6.8h-85.4L247.5,243.4z M169.5,289.8   c5-5.1,11.9-8.1,19-8.1h199.2l22.8,47.2H195.9l5.6-6.3c6.5-7.3,15.8-11.4,25.5-11.4h8.9v7c0,3.2,2.6,5.9,5.9,5.9   c3.2,0,5.9-2.6,5.9-5.9v-7h33.6v7c0,3.2,2.6,5.9,5.9,5.9c3.2,0,5.9-2.6,5.9-5.9v-7h33.9v7c0,3.2,2.6,5.9,5.9,5.9   c3.2,0,5.9-2.6,5.9-5.9v-7h33.9v7c0,3.2,2.6,5.9,5.9,5.9c3.2,0,5.9-2.6,5.9-5.9V311c2.5-0.7,4.3-2.9,4.3-5.6c0-3.2-2.6-5.9-5.9-5.9   H227c-13.1,0-25.5,5.6-34.3,15.3l-12.6,14.1h-48.4L169.5,289.8z M148.8,423.7c-11.1,0-21.8-5.3-28.5-14.2   c-6.5-8.6-15.7-19.9-27.3-31.6h160.8c3.2,0,5.9-2.6,5.9-5.9s-2.6-5.9-5.9-5.9H80.7c-10.2-9.1-21.7-18-34.4-25.6h386.1   c8.3,0,15.8,5,19,12.6l5.5,13H321c-3.2,0-5.9,2.6-5.9,5.9s2.6,5.9,5.9,5.9h140.9l19.3,45.8H148.8z"></path><path d="M293,366.3h-8c-3.2,0-5.9,2.6-5.9,5.9s2.6,5.9,5.9,5.9h8c3.2,0,5.9-2.6,5.9-5.9S296.2,366.3,293,366.3z"></path><path d="M352,184.7c3.2,0,5.9-2.6,5.9-5.9V82.4c0-3.2-2.6-5.9-5.9-5.9c-3.2,0-5.9,2.6-5.9,5.9v96.4   C346.2,182.1,348.8,184.7,352,184.7z"></path></g></svg></svg> <defs><filter id="colors1570311164"><feColorMatrix type="matrix" values="0 0 0 0 0.99609375  0 0 0 0 0.99609375  0 0 0 0 0.99609375  0 0 0 1 0" class="icon-feColorMatrix "></feColorMatrix></filter> <filter id="colorsf4343534837"><feColorMatrix type="matrix" values="0 0 0 0 0.99609375  0 0 0 0 0.99609375  0 0 0 0 0.99609375  0 0 0 1 0" class="icon-fecolormatrix"></feColorMatrix></filter> <filter id="colorsb6581913980"><feColorMatrix type="matrix" values="0 0 0 0 0  0 0 0 0 0  0 0 0 0 0  0 0 0 1 0" class="icon-fecolormatrix"></feColorMatrix></filter></defs></g></g> <g transform="translate(63.97999954223633,11.708294868469238)"><g fill-rule="" class="tp-name iconsvg-namesvg" transform="translate(0,0)"><g transform="scale(1)"><g><path d="M11.1 0L4.18 0 4.18-0.53 4.91-0.7Q5.41-0.83 5.61-1.13 5.81-1.43 5.84-1.93L5.84-1.93 5.84-6.46 1.8-14.7Q1.55-15.21 1.33-15.46 1.1-15.71 0.68-15.86L0.68-15.86 0.23-16.03 0.23-16.56 6.86-16.56 6.86-16.03 6.41-15.88Q5.86-15.71 5.81-15.32 5.76-14.93 6.04-14.33L6.04-14.33 8.89-8.02 11.97-14.5Q12.2-14.96 12.17-15.38 12.15-15.81 11.65-15.93L11.65-15.93 11.3-16.03 11.3-16.56 14.58-16.56 14.58-16.03 14.08-15.88Q13.58-15.73 13.36-15.43 13.15-15.13 12.93-14.63L12.93-14.63 9.44-7.39 9.44-1.93Q9.44-0.9 10.35-0.7L10.35-0.7 11.1-0.53 11.1 0ZM18.91 0.35L18.91 0.35Q17.49 0.35 16.5-0.46 15.51-1.28 15.51-2.81L15.51-2.81Q15.51-4.01 16.67-5.02 17.84-6.04 20.34-6.51L20.34-6.51Q20.77-6.61 21.33-6.7 21.89-6.79 22.45-6.89L22.45-6.89 22.45-8.67Q22.45-10.37 22.02-11.02 21.59-11.67 20.67-11.67L20.67-11.67 20.59-11.67Q20.02-11.67 19.68-11.31 19.34-10.95 19.24-10.12L19.24-10.12 19.16-9.79Q19.09-8.79 18.64-8.33 18.19-7.87 17.51-7.87L17.51-7.87Q16.88-7.87 16.47-8.25 16.06-8.64 16.06-9.27L16.06-9.27Q16.06-10.3 16.76-11 17.46-11.7 18.63-12.05 19.79-12.4 21.14-12.4L21.14-12.4Q23.37-12.4 24.55-11.32 25.73-10.25 25.73-7.82L25.73-7.82 25.73-2.23Q25.73-1.15 26.75-1.15L26.75-1.15 27.33-1.15 27.58-0.88Q27.13-0.3 26.58 0.01 26.03 0.33 25.08 0.33L25.08 0.33Q24 0.33 23.36-0.19 22.72-0.7 22.52-1.55L22.52-1.55Q21.72-0.7 20.94-0.18 20.17 0.35 18.91 0.35ZM20.37-1.25L20.37-1.25Q20.87-1.25 21.32-1.48 21.77-1.7 22.45-2.23L22.45-2.23 22.45-6.24Q21.79-6.14 21.12-5.99L21.12-5.99Q20.04-5.74 19.38-5.06 18.71-4.38 18.71-3.23L18.71-3.23Q18.71-2.23 19.18-1.74 19.64-1.25 20.37-1.25ZM34.29 0.35L34.29 0.35Q32.59 0.35 31.21-0.39 29.84-1.13 29.05-2.54 28.26-3.96 28.26-5.99L28.26-5.99Q28.26-8.02 29.13-9.44 30.01-10.87 31.48-11.64 32.94-12.4 34.7-12.4L34.7-12.4Q36.12-12.4 37.13-11.92 38.13-11.45 38.65-10.71 39.18-9.97 39.18-9.14L39.18-9.14Q39.18-8.44 38.77-8.07 38.35-7.69 37.7-7.69L37.7-7.69Q37-7.69 36.56-8.19 36.12-8.69 36.05-9.47L36.05-9.47Q36.02-9.97 36.06-10.32 36.1-10.67 36.05-11L36.05-11Q35.95-11.42 35.71-11.57 35.47-11.72 35.05-11.72L35.05-11.72Q33.47-11.72 32.63-10.46 31.79-9.19 31.79-6.36L31.79-6.36Q31.79-3.93 32.72-2.63 33.64-1.33 35.6-1.33L35.6-1.33Q36.75-1.33 37.5-1.77 38.25-2.2 38.88-3.03L38.88-3.03 39.28-2.73Q38.65-1.23 37.36-0.44 36.07 0.35 34.29 0.35ZM46.22 0L40.51 0 40.51-0.5 40.83-0.6Q41.74-0.88 41.74-1.85L41.74-1.85 41.74-14.76Q41.74-15.28 41.56-15.54 41.38-15.81 40.88-15.93L40.88-15.93 40.51-16.03 40.51-16.51 44.74-17.59 45.14-17.36 45.04-13.83 45.04-10.62Q45.92-11.35 46.96-11.87 48-12.4 49.2-12.4L49.2-12.4Q50.85-12.4 51.79-11.47 52.73-10.55 52.73-8.62L52.73-8.62 52.73-1.83Q52.73-1.33 52.93-1.03 53.13-0.73 53.63-0.58L53.63-0.58 53.86-0.5 53.86 0 48.15 0 48.15-0.5 48.45-0.6Q49.35-0.85 49.35-1.85L49.35-1.85 49.35-9.09Q49.35-10.12 49-10.52 48.65-10.92 47.77-10.92L47.77-10.92Q47.17-10.92 46.51-10.7 45.84-10.47 45.12-9.95L45.12-9.95 45.12-1.8Q45.12-1.3 45.32-1 45.52-0.7 45.99-0.58L45.99-0.58 46.22-0.5 46.22 0ZM59.57 0.35L59.57 0.35Q58.02 0.35 57.13-0.41 56.24-1.18 56.24-2.91L56.24-2.91Q56.24-3.51 56.25-4.05 56.26-4.58 56.26-5.31L56.26-5.31 56.26-11.25 54.49-11.25 54.49-11.8 55.16-11.9Q55.89-12.02 56.4-12.35 56.92-12.68 57.34-13.25L57.34-13.25 58.97-15.51 59.72-15.51 59.65-12.02 62.5-12.02 62.5-11.25 59.62-11.25 59.62-2.71Q59.62-1.8 60.01-1.35 60.4-0.9 60.97-0.9L60.97-0.9Q61.48-0.9 61.88-1.14 62.28-1.38 62.68-1.78L62.68-1.78 63-1.4Q62.53-0.58 61.68-0.11 60.82 0.35 59.57 0.35Z" transform="translate(-0.23000000417232513, 17.59000015258789)"></path></g> <g fill="#ffffff" transform="translate(65.77000045776367,0)"><g transform="scale(1)"><path d="M9.14 0.43L9.14 0.43Q6.71 0.43 4.76-0.58 2.81-1.58 1.67-3.53 0.53-5.49 0.53-8.29L0.53-8.29Q0.53-10.4 1.21-12.02 1.9-13.65 3.12-14.77 4.33-15.88 5.91-16.45 7.49-17.01 9.27-17.01L9.27-17.01Q10.65-17.01 11.85-16.7 13.05-16.38 14.15-15.78L14.15-15.78 14.25-12.5 13.58-12.5 12.53-14.48Q12.28-14.98 11.99-15.38 11.7-15.78 11.25-15.96L11.25-15.96Q10.62-16.26 9.77-16.26L9.77-16.26Q8.29-16.26 7.08-15.51 5.86-14.76 5.14-13.01 4.41-11.27 4.41-8.27L4.41-8.27Q4.41-5.29 5.1-3.53 5.79-1.78 6.96-1.04 8.14-0.3 9.62-0.3L9.62-0.3Q10.3-0.3 10.72-0.4 11.15-0.5 11.57-0.68L11.57-0.68Q12.07-0.88 12.35-1.27 12.63-1.65 12.83-2.15L12.83-2.15 13.78-4.43 14.45-4.43 14.35-0.83Q13.28-0.23 11.97 0.1 10.67 0.43 9.14 0.43ZM21.39 0L15.68 0 15.68-0.5 16.01-0.6Q16.91-0.88 16.91-1.85L16.91-1.85 16.91-14.76Q16.91-15.28 16.73-15.54 16.56-15.81 16.06-15.93L16.06-15.93 15.68-16.03 15.68-16.51 19.92-17.59 20.32-17.36 20.22-13.83 20.22-10.62Q21.09-11.35 22.13-11.87 23.17-12.4 24.37-12.4L24.37-12.4Q26.03-12.4 26.97-11.47 27.91-10.55 27.91-8.62L27.91-8.62 27.91-1.83Q27.91-1.33 28.11-1.03 28.31-0.73 28.81-0.58L28.81-0.58 29.03-0.5 29.03 0 23.32 0 23.32-0.5 23.62-0.6Q24.53-0.85 24.53-1.85L24.53-1.85 24.53-9.09Q24.53-10.12 24.17-10.52 23.82-10.92 22.95-10.92L22.95-10.92Q22.35-10.92 21.68-10.7 21.02-10.47 20.29-9.95L20.29-9.95 20.29-1.8Q20.29-1.3 20.49-1 20.69-0.7 21.17-0.58L21.17-0.58 21.39-0.5 21.39 0ZM33.67 0.35L33.67 0.35Q32.24 0.35 31.25-0.46 30.26-1.28 30.26-2.81L30.26-2.81Q30.26-4.01 31.43-5.02 32.59-6.04 35.1-6.51L35.1-6.51Q35.52-6.61 36.09-6.7 36.65-6.79 37.2-6.89L37.2-6.89 37.2-8.67Q37.2-10.37 36.77-11.02 36.35-11.67 35.42-11.67L35.42-11.67 35.35-11.67Q34.77-11.67 34.43-11.31 34.09-10.95 33.99-10.12L33.99-10.12 33.92-9.79Q33.84-8.79 33.39-8.33 32.94-7.87 32.27-7.87L32.27-7.87Q31.64-7.87 31.23-8.25 30.81-8.64 30.81-9.27L30.81-9.27Q30.81-10.3 31.51-11 32.22-11.7 33.38-12.05 34.55-12.4 35.9-12.4L35.9-12.4Q38.13-12.4 39.31-11.32 40.48-10.25 40.48-7.82L40.48-7.82 40.48-2.23Q40.48-1.15 41.51-1.15L41.51-1.15 42.09-1.15 42.34-0.88Q41.89-0.3 41.33 0.01 40.78 0.33 39.83 0.33L39.83 0.33Q38.75 0.33 38.12-0.19 37.48-0.7 37.28-1.55L37.28-1.55Q36.47-0.7 35.7-0.18 34.92 0.35 33.67 0.35ZM35.12-1.25L35.12-1.25Q35.62-1.25 36.07-1.48 36.52-1.7 37.2-2.23L37.2-2.23 37.2-6.24Q36.55-6.14 35.87-5.99L35.87-5.99Q34.8-5.74 34.13-5.06 33.47-4.38 33.47-3.23L33.47-3.23Q33.47-2.23 33.93-1.74 34.4-1.25 35.12-1.25ZM49.18 0L42.91 0 42.91-0.48 43.29-0.6Q43.79-0.73 43.98-1.03 44.17-1.33 44.17-1.83L44.17-1.83 44.17-9.17Q44.14-9.72 43.96-10.01 43.79-10.3 43.29-10.4L43.29-10.4 42.91-10.5 42.91-10.95 47-12.4 47.3-12.12 47.52-9.92 47.52-9.74Q47.9-10.45 48.47-11.05 49.05-11.65 49.73-12.02 50.4-12.4 51.08-12.4L51.08-12.4Q52.03-12.4 52.51-11.9 52.98-11.4 52.98-10.62L52.98-10.62Q52.98-9.77 52.51-9.33 52.03-8.89 51.35-8.89L51.35-8.89Q50.35-8.89 49.63-9.79L49.63-9.79 49.58-9.85Q49.33-10.15 49.01-10.18 48.7-10.22 48.4-9.87L48.4-9.87Q48.15-9.62 47.94-9.28 47.72-8.94 47.55-8.49L47.55-8.49 47.55-1.93Q47.55-1.45 47.75-1.14 47.95-0.83 48.42-0.7L48.42-0.7 49.18-0.48 49.18 0ZM58.52 0.35L58.52 0.35Q56.97 0.35 56.08-0.41 55.19-1.18 55.19-2.91L55.19-2.91Q55.19-3.51 55.2-4.05 55.21-4.58 55.21-5.31L55.21-5.31 55.21-11.25 53.43-11.25 53.43-11.8 54.11-11.9Q54.84-12.02 55.35-12.35 55.86-12.68 56.29-13.25L56.29-13.25 57.92-15.51 58.67-15.51 58.59-12.02 61.45-12.02 61.45-11.25 58.57-11.25 58.57-2.71Q58.57-1.8 58.96-1.35 59.35-0.9 59.92-0.9L59.92-0.9Q60.42-0.9 60.82-1.14 61.22-1.38 61.63-1.78L61.63-1.78 61.95-1.4Q61.48-0.58 60.62-0.11 59.77 0.35 58.52 0.35ZM69.04-12.4L69.04-12.4Q70.62-12.4 71.75-11.75 72.87-11.1 73.49-9.96 74.1-8.82 74.1-7.34L74.1-7.34Q74.1-7.01 74.08-6.73 74.05-6.44 73.98-6.19L73.98-6.19 66.44-6.19Q66.46-3.61 67.4-2.48 68.34-1.35 70.14-1.35L70.14-1.35Q71.4-1.35 72.17-1.77 72.95-2.18 73.6-2.93L73.6-2.93 74-2.56Q73.25-1.18 71.96-0.41 70.67 0.35 68.89 0.35L68.89 0.35Q67.11 0.35 65.76-0.4 64.41-1.15 63.64-2.57 62.88-3.98 62.88-5.96L62.88-5.96Q62.88-8.02 63.77-9.44 64.66-10.87 66.07-11.64 67.49-12.4 69.04-12.4ZM68.92-11.67L68.92-11.67Q68.19-11.67 67.65-11.26 67.11-10.85 66.8-9.81 66.49-8.77 66.44-6.89L66.44-6.89 70.92-6.89Q71.2-9.42 70.72-10.55 70.24-11.67 68.92-11.67ZM81.64 0L75.38 0 75.38-0.48 75.75-0.6Q76.26-0.73 76.44-1.03 76.63-1.33 76.63-1.83L76.63-1.83 76.63-9.17Q76.61-9.72 76.43-10.01 76.26-10.3 75.75-10.4L75.75-10.4 75.38-10.5 75.38-10.95 79.46-12.4 79.76-12.12 79.99-9.92 79.99-9.74Q80.36-10.45 80.94-11.05 81.52-11.65 82.19-12.02 82.87-12.4 83.55-12.4L83.55-12.4Q84.5-12.4 84.97-11.9 85.45-11.4 85.45-10.62L85.45-10.62Q85.45-9.77 84.97-9.33 84.5-8.89 83.82-8.89L83.82-8.89Q82.82-8.89 82.09-9.79L82.09-9.79 82.04-9.85Q81.79-10.15 81.48-10.18 81.17-10.22 80.86-9.87L80.86-9.87Q80.61-9.62 80.4-9.28 80.19-8.94 80.01-8.49L80.01-8.49 80.01-1.93Q80.01-1.45 80.21-1.14 80.41-0.83 80.89-0.7L80.89-0.7 81.64-0.48 81.64 0Z" transform="translate(-0.5299999713897705, 17.59000015258789)"></path></g></g></g></g> <g fill-rule="" class="tp-slogan iconsvg-slogansvg" fill="#ffffff" transform="translate(5.5131378173828125,27.020002365112305)"> <g transform="scale(1, 1)"><g transform="scale(1)"><path d="M0.05-0.01L1.93-0.01C1.98-0.13 1.51-0.18 1.51-0.71L1.51-3.84L3.63-3.84C4.07-3.80 4.21-3.56 4.24-3.51C4.34-3.37 4.44-2.79 4.55-2.87L4.55-5.30C4.44-5.37 4.34-4.79 4.24-4.66C4.21-4.60 4.07-4.35 3.63-4.32L1.51-4.32L1.51-7.19L4.34-7.19C4.77-7.15 4.92-6.91 4.96-6.86C5.05-6.72 5.16-6.15 5.25-6.22L5.12-7.67L0.05-7.67C0-7.54 0.47-7.49 0.47-6.97L0.47-0.71C0.47-0.18 0-0.13 0.05-0.01ZM12.67-0.01C14.85-0.01 16.21-1.73 16.21-3.84C16.21-5.95 14.89-7.67 12.67-7.67C10.43-7.67 9.13-5.95 9.13-3.84C9.13-1.73 10.48-0.01 12.67-0.01ZM12.67-7.19C14.24-7.19 15.15-5.69 15.15-3.84C15.15-1.99 14.20-0.49 12.67-0.49C11.12-0.49 10.17-1.99 10.17-3.84C10.17-5.69 11.10-7.19 12.67-7.19ZM20.13 0L22.02 0C22.07-0.13 21.60-0.18 21.60-0.70L21.60-3.12C21.89-3.13 22.20-3.15 22.51-3.21L24.41-0.54C24.63-0.19 24.95 0 25.48 0C25.79 0 26.11 0 26.41 0C26.45-0.06 26.38-0.11 26.29-0.14C26.07-0.21 25.78-0.42 25.56-0.70L23.60-3.46C24.68-3.80 25.89-4.46 25.85-5.74C25.82-6.81 24.75-7.66 23.30-7.66L20.13-7.66C20.09-7.54 20.55-7.49 20.55-6.96L20.55-0.70C20.55-0.18 20.09-0.13 20.13 0ZM21.60-7.18C22.62-7.18 24.62-7.29 24.66-5.75C24.68-4.96 24.19-3.83 21.60-3.60ZM33.36-0.70L33.36-7.18L34.72-7.18C35.16-7.15 35.31-6.90 35.34-6.86C35.44-6.71 35.54-6.14 35.64-6.21L35.51-7.66L30.16-7.66L30.04-6.21C30.13-6.14 30.23-6.71 30.33-6.86C30.36-6.90 30.52-7.15 30.94-7.18L32.31-7.18L32.31-0.70C32.31-0.18 31.84-0.13 31.89 0L33.77 0C33.83-0.13 33.36-0.18 33.36-0.70ZM45.49-0.01L50.35-0.01L50.47-1.46C50.37-1.53 50.27-0.96 50.17-0.81C50.14-0.77 49.99-0.52 49.56-0.49L46.95-0.49L46.95-6.97C46.95-7.49 47.42-7.54 47.37-7.67L45.49-7.67C45.44-7.54 45.91-7.49 45.91-6.97L45.91-0.71C45.91-0.18 45.44-0.13 45.49-0.01ZM61.47-0.15C61.27-0.23 61.03-0.43 60.92-0.69L58.61-7.67L56.78-7.67C56.71-7.49 57.31-7.61 57.13-6.97L55.06-0.71C54.96-0.44 54.71-0.23 54.51-0.15C54.42-0.10 54.35-0.06 54.37-0.01L55.95-0.01C56.02-0.18 55.39-0.06 55.62-0.74L56.02-1.97L59.40-1.97L59.76-0.87C60.05 0.02 59.38-0.21 59.47-0.01L61.61-0.01C61.62-0.06 61.55-0.10 61.47-0.15ZM56.19-2.46L57.71-7.07L59.23-2.46ZM65.38-6.96L65.38-2.47C65.38-0.67 66.50 0 67.86 0C69.22 0 70.33-0.70 70.33-2.47L70.33-6.96C70.33-7.49 70.80-7.54 70.75-7.66L68.87-7.66C68.81-7.54 69.28-7.49 69.28-6.96L69.28-1.90C69.28-0.04 66.43-0.04 66.43-1.90L66.43-6.96C66.43-7.49 66.91-7.54 66.85-7.66L64.96-7.66C64.92-7.54 65.38-7.49 65.38-6.96ZM74.72-0.01L77.49-0.01C79.59-0.01 81.31-1.73 81.31-3.84C81.31-5.95 79.59-7.67 77.49-7.67L74.72-7.67C74.68-7.54 75.15-7.49 75.15-6.97L75.15-0.71C75.15-0.18 74.68-0.13 74.72-0.01ZM76.19-7.19L76.89-7.19C81.18-7.19 81.16-0.49 76.89-0.49L76.19-0.49ZM85.24-0.01L90.32-0.01L90.44-1.46C90.35-1.53 90.24-0.96 90.15-0.81C90.11-0.77 89.96-0.52 89.54-0.49L86.71-0.49L86.71-3.84L88.82-3.84C89.26-3.80 89.40-3.56 89.43-3.51C89.53-3.37 89.64-2.79 89.74-2.87L89.74-5.30C89.64-5.37 89.53-4.79 89.43-4.66C89.40-4.60 89.26-4.35 88.82-4.32L86.71-4.32L86.71-7.19L89.54-7.19C89.96-7.15 90.11-6.91 90.15-6.86C90.24-6.72 90.35-6.15 90.44-6.22L90.32-7.67L85.24-7.67C85.19-7.54 85.66-7.49 85.66-6.97L85.66-0.71C85.66-0.18 85.19-0.13 85.24-0.01ZM94.57 0L96.46 0C96.50-0.13 96.04-0.18 96.04-0.70L96.04-3.12C96.33-3.13 96.63-3.15 96.95-3.21L98.85-0.54C99.07-0.19 99.39 0 99.91 0C100.23 0 100.55 0 100.85 0C100.89-0.06 100.82-0.11 100.72-0.14C100.51-0.21 100.22-0.42 100.00-0.70L98.04-3.46C99.12-3.80 100.32-4.46 100.29-5.74C100.25-6.81 99.19-7.66 97.73-7.66L94.57-7.66C94.52-7.54 94.99-7.49 94.99-6.96L94.99-0.70C94.99-0.18 94.52-0.13 94.57 0ZM96.04-7.18C97.05-7.18 99.06-7.29 99.09-5.75C99.12-4.96 98.63-3.83 96.04-3.60ZM104.81-0.01L107.58-0.01C109.68-0.01 111.40-1.73 111.40-3.84C111.40-5.95 109.68-7.67 107.58-7.67L104.81-7.67C104.77-7.54 105.23-7.49 105.23-6.97L105.23-0.71C105.23-0.18 104.77-0.13 104.81-0.01ZM106.28-7.19L106.98-7.19C111.27-7.19 111.25-0.49 106.98-0.49L106.28-0.49ZM121.52-0.15C121.32-0.23 121.08-0.43 120.97-0.69L118.66-7.67L116.84-7.67C116.77-7.49 117.36-7.61 117.19-6.97L115.11-0.71C115.01-0.44 114.76-0.23 114.56-0.15C114.47-0.10 114.40-0.06 114.42-0.01L116.00-0.01C116.07-0.18 115.44-0.06 115.68-0.74L116.07-1.97L119.45-1.97L119.81-0.87C120.11 0.02 119.44-0.21 119.52-0.01L121.66-0.01C121.68-0.06 121.61-0.10 121.52-0.15ZM116.24-2.46L117.76-7.07L119.29-2.46ZM125.60-0.01L130.46-0.01L130.58-1.46C130.49-1.53 130.38-0.96 130.29-0.81C130.25-0.77 130.10-0.52 129.68-0.49L127.07-0.49L127.07-6.97C127.07-7.49 127.54-7.54 127.49-7.67L125.60-7.67C125.55-7.54 126.02-7.49 126.02-6.97L126.02-0.71C126.02-0.18 125.55-0.13 125.60-0.01ZM134.51-0.01L139.59-0.01L139.71-1.46C139.62-1.53 139.51-0.96 139.42-0.81C139.38-0.77 139.23-0.52 138.81-0.49L135.98-0.49L135.98-3.84L138.09-3.84C138.53-3.80 138.67-3.56 138.70-3.51C138.80-3.37 138.91-2.79 139.01-2.87L139.01-5.30C138.91-5.37 138.80-4.79 138.70-4.66C138.67-4.60 138.53-4.35 138.09-4.32L135.98-4.32L135.98-7.19L138.81-7.19C139.23-7.15 139.38-6.91 139.42-6.86C139.51-6.72 139.62-6.15 139.71-6.22L139.59-7.67L134.51-7.67C134.46-7.54 134.93-7.49 134.93-6.97L134.93-0.71C134.93-0.18 134.46-0.13 134.51-0.01Z" transform="translate(-0.0435799319727891, 7.669921875)"></path></g></g></g></g></g><defs v-gra="od"></defs></g></svg>